<svg version="1.1" id="Layer_1" xmlns="http://www.w3.org/2000/svg" xmlns:xlink="http://www.w3.org/1999/xlink" x="0px" y="0px"
	 width="100%" viewBox="0 0 1024 1024" enable-background="new 0 0 1024 1024" xml:space="preserve">
<path fill="#000101" opacity="1.000000" stroke="none" 
	d="
M478.000000,1025.000000 
	C319.016449,1025.000000 160.032883,1025.000000 1.024664,1025.000000 
	C1.024664,683.718384 1.024664,342.436829 1.024664,1.077612 
	C342.246277,1.077612 683.492615,1.077612 1024.869385,1.077612 
	C1024.869385,342.210938 1024.869385,683.421936 1024.869385,1025.000000 
	C867.305481,1025.000000 709.610718,1025.000000 551.131226,1024.694702 
	C551.832458,1023.748230 553.270264,1022.718201 554.811890,1022.527466 
	C567.001160,1021.019287 579.268677,1020.049438 591.398071,1018.175659 
	C605.820068,1015.947571 620.295105,1013.659851 634.443054,1010.166077 
	C651.312561,1006.000305 667.922607,1000.730225 684.521606,995.543274 
	C693.972351,992.590027 703.302490,989.153076 712.455872,985.374023 
	C721.311829,981.717651 729.805054,977.193237 738.574768,973.315002 
	C758.197510,964.637146 776.531921,953.658447 794.396606,941.911316 
	C811.592041,930.604309 828.490662,918.842468 843.662598,904.815186 
	C855.108398,894.233032 866.965393,884.062927 877.945496,873.019409 
	C887.873291,863.034241 897.215454,852.405945 906.166443,841.526978 
	C915.745422,829.884827 924.560974,817.614807 933.719604,805.626404 
	C936.208008,802.369141 935.750427,800.145569 932.271118,797.509827 
	C903.786682,775.932373 879.321777,750.366821 857.900085,721.818298 
	C818.866821,669.798950 792.949890,611.501892 776.174561,549.040405 
	C763.224060,500.820282 751.611694,452.242126 738.871094,403.963898 
	C726.936401,358.739380 711.261963,314.915894 686.703918,274.755920 
	C659.082886,229.587158 622.195190,195.255371 571.443420,177.577042 
	C542.359436,167.446213 512.144165,162.254715 481.629028,159.106598 
	C467.585052,157.657745 453.357147,157.319580 439.227875,157.525085 
	C417.006409,157.848282 396.848358,166.075806 377.776215,176.563187 
	C353.710266,189.796585 328.165131,194.148224 301.113220,192.365707 
	C288.658142,191.544983 276.151489,191.540283 263.678436,190.949280 
	C253.835739,190.482880 246.459045,195.127197 240.076096,201.857513 
	C233.971985,208.293762 231.277695,216.504959 228.512955,224.706512 
	C218.917618,253.170776 223.259354,279.143646 242.080460,302.627899 
	C244.056625,305.093658 246.032898,307.559387 248.337601,310.261688 
	C252.433380,310.386200 256.200684,310.274170 260.300110,310.102417 
	C261.070923,310.117554 261.509613,310.192352 261.948273,310.623718 
	C261.964111,311.930359 261.979980,312.880493 261.620331,313.898102 
	C260.485352,313.924316 259.725952,313.883026 258.713593,313.670959 
	C257.318329,313.614197 256.175964,313.728210 254.613892,313.906311 
	C252.782104,313.930542 251.370026,313.890625 249.856354,313.759521 
	C249.448196,313.583527 249.235611,313.686493 248.983978,314.354156 
	C250.652863,318.988831 251.628830,323.915314 254.424713,327.368103 
	C260.676849,335.089233 267.159576,342.898682 274.785370,349.167358 
	C285.949615,358.344788 298.340515,366.012207 309.948975,374.671295 
	C325.771149,386.473602 340.634460,399.324005 350.877960,416.587708 
	C367.104065,443.934113 368.991333,473.590088 364.447174,504.130524 
	C360.527985,530.470886 351.817566,555.457764 342.259216,580.183350 
	C326.660187,620.535095 310.386292,660.646362 295.767365,701.351196 
	C279.459442,746.758911 270.075500,793.814148 269.768036,842.185303 
	C269.623413,864.939941 271.215088,887.812317 273.714050,910.444336 
	C275.826843,929.578796 280.385773,948.442993 283.852631,967.428528 
	C284.456848,970.737244 285.977570,972.897949 289.401672,974.286926 
	C298.913788,978.145264 308.025482,983.050598 317.659393,986.536255 
	C336.370941,993.306396 355.169342,999.930603 374.226868,1005.628113 
	C402.293732,1014.019043 431.050507,1019.227295 460.263641,1021.743347 
	C465.221680,1022.170410 470.200195,1022.393494 475.141083,1022.957642 
	C476.158539,1023.073792 477.050323,1024.290527 478.000000,1025.000000 
M951.574829,776.992737 
	C951.814941,777.088928 952.055115,777.185181 952.675415,777.004456 
	C952.917969,776.798645 953.115112,776.555908 953.874512,775.966125 
	C956.271851,772.173096 958.669189,768.380127 961.066528,764.587097 
	C960.540344,764.273193 960.014221,763.959229 959.488037,763.645264 
	C957.244446,767.687744 955.000854,771.730164 952.361816,776.026489 
	C952.112305,776.223755 951.907410,776.459839 951.574829,776.992737 
M235.008453,80.936264 
	C230.123230,83.222519 225.255905,85.533501 221.512253,89.398201 
	C221.871994,89.915428 222.231735,90.432648 222.591476,90.949875 
	C227.140640,87.740562 231.689789,84.531242 236.909851,81.124672 
	C240.126160,79.228477 243.342453,77.332291 246.558762,75.436096 
	C246.138763,74.845245 245.718781,74.254402 245.298798,73.663559 
	C242.097397,76.028831 238.895996,78.394104 235.008453,80.936264 
M657.544983,21.279921 
	C657.681702,21.186205 657.862305,21.119749 657.942322,20.990843 
	C658.017639,20.869314 658.047363,20.568104 657.994019,20.539707 
	C652.772583,17.760431 647.266846,16.170378 641.217407,16.845076 
	C646.465332,18.317228 651.713196,19.789381 657.544983,21.279921 
M988.348389,318.864532 
	C988.186890,318.829773 988.018127,318.749634 987.866211,318.774078 
	C987.736572,318.794891 987.509644,318.975311 987.524109,319.018341 
	C989.358643,324.460663 991.211670,329.896790 993.063660,335.333252 
	C993.652649,335.106293 994.241638,334.879364 994.830627,334.652405 
	C992.824585,329.532715 990.818542,324.413055 988.348389,318.864532 
M67.553871,260.099426 
	C68.614983,258.139465 69.676102,256.179474 70.737213,254.219513 
	C70.317154,253.994278 69.897087,253.769043 69.477020,253.543808 
	C66.951042,257.867279 64.425064,262.190735 61.899078,266.514191 
	C62.371956,266.794067 62.844830,267.073944 63.317703,267.353821 
	C64.607483,265.143585 65.897255,262.933380 67.553871,260.099426 
M129.297775,170.271103 
	C129.161972,170.904556 129.026154,171.538025 128.890350,172.171478 
	C129.176422,172.324493 129.462479,172.477509 129.748550,172.630524 
	C131.750732,170.489212 133.752930,168.347900 135.755112,166.206589 
	C135.286636,165.740295 134.818161,165.274002 134.349686,164.807709 
	C132.783630,166.457397 131.217560,168.107086 129.297775,170.271103 
M961.995605,759.107605 
	C961.880676,759.816406 961.765808,760.525208 961.650879,761.233948 
	C962.056213,761.389038 962.461487,761.544067 962.866821,761.699097 
	C964.253113,758.913330 965.639404,756.127563 967.025696,753.341797 
	C966.647827,753.137695 966.269958,752.933655 965.892090,752.729553 
	C964.684875,754.659546 963.477722,756.589539 961.995605,759.107605 
M54.210587,285.301819 
	C53.839718,284.955780 53.468849,284.609741 53.097980,284.263702 
	C51.686275,287.073547 50.274570,289.883362 48.862865,292.693207 
	C49.289219,292.897919 49.715576,293.102600 50.141930,293.307312 
	C51.412106,290.837311 52.682281,288.367340 54.210587,285.301819 
M784.747864,78.406311 
	C786.427429,79.498909 788.106995,80.591499 789.786560,81.684097 
	C790.056396,81.075607 790.326233,80.467110 790.596069,79.858620 
	C788.622070,79.186790 786.648132,78.514961 784.747864,78.406311 
M56.870922,280.016357 
	C57.414791,278.740540 57.958660,277.464722 58.502529,276.188934 
	C57.854443,276.109283 57.206352,276.029633 56.558266,275.949982 
	C56.558266,277.469055 56.558266,278.988098 56.870922,280.016357 
M248.662903,72.998009 
	C249.639954,72.809929 250.617020,72.621857 251.594070,72.433777 
	C251.459076,72.021828 251.324097,71.609886 251.189102,71.197937 
	C250.353958,71.622849 249.518814,72.047760 248.662903,72.998009 
M778.071411,74.153549 
	C778.735596,74.571388 779.399780,74.989235 780.063965,75.407082 
	C780.210205,75.033516 780.356445,74.659950 780.502686,74.286385 
	C779.689087,74.088257 778.875549,73.890121 778.071411,74.153549 
M138.101212,161.373657 
	C137.613373,161.910263 137.125534,162.446869 136.637695,162.983459 
	C136.968491,163.181641 137.299286,163.379822 137.630081,163.578003 
	C137.935654,162.860275 138.241241,162.142532 138.101212,161.373657 
M775.241943,71.186089 
	C774.813782,71.064514 774.385559,70.942940 773.957397,70.821365 
	C773.990051,71.249443 774.022705,71.677521 774.055298,72.105598 
	C774.508362,71.937866 774.961365,71.770134 775.241943,71.186089 
M42.757343,306.703918 
	C42.571384,307.341980 42.385422,307.980072 42.199463,308.618134 
	C42.452530,308.667694 42.705597,308.717224 42.958668,308.766754 
	C43.041862,308.032257 43.125057,307.297760 42.757343,306.703918 
M47.464962,295.969482 
	C47.509781,296.382294 47.554604,296.795074 47.599419,297.207886 
	C47.845314,297.047546 48.319160,296.836273 48.296734,296.735931 
	C48.210396,296.349396 47.965294,295.998322 47.464962,295.969482 
M71.725746,250.844742 
	C71.889320,250.962708 72.052895,251.080658 72.216469,251.198624 
	C72.113167,251.025787 72.009857,250.852951 71.725746,250.844742 
M41.662788,311.517822 
	C41.662788,311.517822 41.430237,311.392700 41.430237,311.392700 
	C41.430237,311.392700 41.470570,311.659973 41.662788,311.517822 
M782.490967,76.562035 
	C782.490967,76.562035 782.443970,76.475433 782.490967,76.562035 
M59.545116,273.508545 
	C59.545116,273.508545 59.479794,273.540436 59.545116,273.508545 
M61.488426,269.561096 
	C61.488426,269.561096 61.450195,269.484741 61.488426,269.561096 
M44.475227,304.667969 
	C44.475227,304.667969 44.597481,304.426910 44.597481,304.426910 
	C44.597481,304.426910 44.337704,304.472565 44.475227,304.667969 
M45.582588,302.513458 
	C45.582588,302.513458 45.473255,302.578979 45.582588,302.513458 
M60.519966,271.358978 
	C60.519966,271.358978 60.408157,271.570312 60.408157,271.570312 
	C60.408157,271.570312 60.634254,271.534393 60.519966,271.358978 
z"/>
<path fill="#4BB0E1" opacity="1.000000" stroke="none" 
	d="
M478.375000,1025.000000 
	C477.050323,1024.290527 476.158539,1023.073792 475.141083,1022.957642 
	C470.200195,1022.393494 465.221680,1022.170410 460.263641,1021.743347 
	C431.050507,1019.227295 402.293732,1014.019043 374.226868,1005.628113 
	C355.169342,999.930603 336.370941,993.306396 317.659393,986.536255 
	C308.025482,983.050598 298.913788,978.145264 289.401672,974.286926 
	C285.977570,972.897949 284.456848,970.737244 283.852631,967.428528 
	C280.385773,948.442993 275.826843,929.578796 273.714050,910.444336 
	C271.215088,887.812317 269.623413,864.939941 269.768036,842.185303 
	C270.075500,793.814148 279.459442,746.758911 295.767365,701.351196 
	C310.386292,660.646362 326.660187,620.535095 342.259216,580.183350 
	C351.817566,555.457764 360.527985,530.470886 364.447174,504.130524 
	C368.991333,473.590088 367.104065,443.934113 350.877960,416.587708 
	C340.634460,399.324005 325.771149,386.473602 309.948975,374.671295 
	C298.340515,366.012207 285.949615,358.344788 274.785370,349.167358 
	C267.159576,342.898682 260.676849,335.089233 254.424713,327.368103 
	C251.628830,323.915314 250.652863,318.988831 249.201538,314.375854 
	C249.552109,314.020569 249.957962,313.850739 249.957962,313.850708 
	C251.370026,313.890625 252.782104,313.930542 255.000458,313.997375 
	C256.859985,313.963470 257.913269,313.902588 258.966522,313.841736 
	C259.725952,313.883026 260.485352,313.924316 261.963257,313.954285 
	C265.276733,312.151154 264.111145,311.109680 261.948334,310.267181 
	C261.509613,310.192352 261.070923,310.117554 259.851501,310.010803 
	C255.383575,309.994293 251.696350,310.009705 248.009125,310.025146 
	C246.032898,307.559387 244.056625,305.093658 242.080460,302.627899 
	C223.259354,279.143646 218.917618,253.170776 228.512955,224.706512 
	C231.277695,216.504959 233.971985,208.293762 240.076096,201.857513 
	C246.459045,195.127197 253.835739,190.482880 263.678436,190.949280 
	C276.151489,191.540283 288.658142,191.544983 301.113220,192.365707 
	C328.165131,194.148224 353.710266,189.796585 377.776215,176.563187 
	C396.848358,166.075806 417.006409,157.848282 439.227875,157.525085 
	C453.357147,157.319580 467.585052,157.657745 481.629028,159.106598 
	C512.144165,162.254715 542.359436,167.446213 571.443420,177.577042 
	C622.195190,195.255371 659.082886,229.587158 686.703918,274.755920 
	C711.261963,314.915894 726.936401,358.739380 738.871094,403.963898 
	C751.611694,452.242126 763.224060,500.820282 776.174561,549.040405 
	C792.949890,611.501892 818.866821,669.798950 857.900085,721.818298 
	C879.321777,750.366821 903.786682,775.932373 932.271118,797.509827 
	C935.750427,800.145569 936.208008,802.369141 933.719604,805.626404 
	C924.560974,817.614807 915.745422,829.884827 906.166443,841.526978 
	C897.215454,852.405945 887.873291,863.034241 877.945496,873.019409 
	C866.965393,884.062927 855.108398,894.233032 843.662598,904.815186 
	C828.490662,918.842468 811.592041,930.604309 794.396606,941.911316 
	C776.531921,953.658447 758.197510,964.637146 738.574768,973.315002 
	C729.805054,977.193237 721.311829,981.717651 712.455872,985.374023 
	C703.302490,989.153076 693.972351,992.590027 684.521606,995.543274 
	C667.922607,1000.730225 651.312561,1006.000305 634.443054,1010.166077 
	C620.295105,1013.659851 605.820068,1015.947571 591.398071,1018.175659 
	C579.268677,1020.049438 567.001160,1021.019287 554.811890,1022.527466 
	C553.270264,1022.718201 551.832458,1023.748230 550.673279,1024.694702 
	C550.250000,1025.000000 549.500000,1025.000000 548.401367,1024.557007 
	C545.368530,1024.409302 542.684265,1024.704712 540.000000,1025.000000 
	C522.645752,1025.000000 505.291534,1025.000000 487.295593,1024.619141 
	C484.769226,1024.492310 482.884613,1024.746216 481.000000,1025.000000 
	C480.250000,1025.000000 479.500000,1025.000000 478.375000,1025.000000 
M473.548828,249.082947 
	C478.008545,236.429947 473.364471,224.423615 461.795074,218.696106 
	C450.530884,213.119705 436.877014,216.795929 430.001282,227.256378 
	C423.201691,237.601013 425.062073,251.406662 434.345276,259.492737 
	C446.635590,270.198151 464.829346,265.655029 473.548828,249.082947 
M243.912872,240.581955 
	C244.875336,237.753387 245.815399,234.916931 246.804657,232.097763 
	C249.387604,224.736908 253.732803,219.491913 261.977997,217.922012 
	C265.103729,217.326874 268.166992,215.457474 270.824646,213.560699 
	C275.403564,210.292679 277.799530,205.600693 277.739014,199.872986 
	C277.712250,197.341736 276.877686,195.293015 273.845886,195.069443 
	C262.809906,194.255615 252.650406,195.118073 244.125824,203.980286 
	C232.356567,216.215668 230.785126,236.975571 241.940628,248.732635 
	C242.564484,246.163513 243.147339,243.763153 243.912872,240.581955 
z"/>
<path fill="#000101" opacity="1.000000" stroke="none" 
	d="
M540.444153,1025.000000 
	C542.684265,1024.704712 545.368530,1024.409302 548.026367,1024.557007 
	C545.629456,1025.000000 543.258850,1025.000000 540.444153,1025.000000 
z"/>
<path fill="#000101" opacity="1.000000" stroke="none" 
	d="
M481.428467,1025.000000 
	C482.884613,1024.746216 484.769226,1024.492310 486.826904,1024.619141 
	C485.285645,1025.000000 483.571289,1025.000000 481.428467,1025.000000 
z"/>
<path fill="#252625" opacity="1.000000" stroke="none" 
	d="
M236.238953,81.321930 
	C231.689789,84.531242 227.140640,87.740562 222.591476,90.949875 
	C222.231735,90.432648 221.871994,89.915428 221.512253,89.398201 
	C225.255905,85.533501 230.123230,83.222519 235.491531,80.984665 
	C235.974609,81.033066 236.238953,81.321930 236.238953,81.321930 
z"/>
<path fill="#343434" opacity="1.000000" stroke="none" 
	d="
M657.253052,21.270725 
	C651.713196,19.789381 646.465332,18.317228 641.217407,16.845076 
	C647.266846,16.170378 652.772583,17.760431 657.994019,20.539707 
	C658.047363,20.568104 658.017639,20.869314 657.942322,20.990843 
	C657.862305,21.119749 657.681702,21.186205 657.253052,21.270725 
z"/>
<path fill="#262626" opacity="1.000000" stroke="none" 
	d="
M988.580444,319.078949 
	C990.818542,324.413055 992.824585,329.532715 994.830627,334.652405 
	C994.241638,334.879364 993.652649,335.106293 993.063660,335.333252 
	C991.211670,329.896790 989.358643,324.460663 987.524109,319.018341 
	C987.509644,318.975311 987.736572,318.794891 987.866211,318.774078 
	C988.018127,318.749634 988.186890,318.829773 988.580444,319.078949 
z"/>
<path fill="#1E1E1E" opacity="1.000000" stroke="none" 
	d="
M67.370453,260.411285 
	C65.897255,262.933380 64.607483,265.143585 63.317703,267.353821 
	C62.844830,267.073944 62.371956,266.794067 61.899078,266.514191 
	C64.425064,262.190735 66.951042,257.867279 69.477020,253.543808 
	C69.897087,253.769043 70.317154,253.994278 70.737213,254.219513 
	C69.676102,256.179474 68.614983,258.139465 67.370453,260.411285 
z"/>
<path fill="#282828" opacity="1.000000" stroke="none" 
	d="
M235.834595,80.896225 
	C238.895996,78.394104 242.097397,76.028831 245.298798,73.663559 
	C245.718781,74.254402 246.138763,74.845245 246.558762,75.436096 
	C243.342453,77.332291 240.126160,79.228477 236.574402,81.223297 
	C236.238953,81.321930 235.974609,81.033066 235.834595,80.896225 
z"/>
<path fill="#212121" opacity="1.000000" stroke="none" 
	d="
M952.757324,775.772644 
	C955.000854,771.730164 957.244446,767.687744 959.488037,763.645264 
	C960.014221,763.959229 960.540344,764.273193 961.066528,764.587097 
	C958.669189,768.380127 956.271851,772.173096 953.443237,775.995300 
	C953.012024,776.024475 952.757324,775.772644 952.757324,775.772644 
z"/>
<path fill="#242625" opacity="1.000000" stroke="none" 
	d="
M129.474640,170.013947 
	C131.217560,168.107086 132.783630,166.457397 134.349686,164.807709 
	C134.818161,165.274002 135.286636,165.740295 135.755112,166.206589 
	C133.752930,168.347900 131.750732,170.489212 129.748550,172.630524 
	C129.462479,172.477509 129.176422,172.324493 128.890350,172.171478 
	C129.026154,171.538025 129.161972,170.904556 129.474640,170.013947 
z"/>
<path fill="#212121" opacity="1.000000" stroke="none" 
	d="
M962.133057,758.813599 
	C963.477722,756.589539 964.684875,754.659546 965.892090,752.729553 
	C966.269958,752.933655 966.647827,753.137695 967.025696,753.341797 
	C965.639404,756.127563 964.253113,758.913330 962.866821,761.699097 
	C962.461487,761.544067 962.056213,761.389038 961.650879,761.233948 
	C961.765808,760.525208 961.880676,759.816406 962.133057,758.813599 
z"/>
<path fill="#1E1E1E" opacity="1.000000" stroke="none" 
	d="
M54.081520,285.599579 
	C52.682281,288.367340 51.412106,290.837311 50.141930,293.307312 
	C49.715576,293.102600 49.289219,292.897919 48.862865,292.693207 
	C50.274570,289.883362 51.686275,287.073547 53.097977,284.263702 
	C53.468849,284.609741 53.839718,284.955780 54.081520,285.599579 
z"/>
<path fill="#1D1D1D" opacity="1.000000" stroke="none" 
	d="
M784.710999,78.124725 
	C786.648132,78.514961 788.622070,79.186790 790.596069,79.858620 
	C790.326233,80.467110 790.056396,81.075607 789.786560,81.684097 
	C788.106995,80.591499 786.427429,79.498909 784.710999,78.124725 
z"/>
<path fill="#1E1E1E" opacity="1.000000" stroke="none" 
	d="
M56.714592,280.261780 
	C56.558266,278.988098 56.558266,277.469055 56.558266,275.949982 
	C57.206352,276.029633 57.854443,276.109283 58.502529,276.188934 
	C57.958660,277.464722 57.414791,278.740540 56.714592,280.261780 
z"/>
<path fill="#011024" opacity="1.000000" stroke="none" 
	d="
M248.337585,310.261688 
	C251.696350,310.009705 255.383575,309.994293 259.519409,310.070496 
	C256.200684,310.274170 252.433380,310.386200 248.337585,310.261688 
z"/>
<path fill="#282828" opacity="1.000000" stroke="none" 
	d="
M248.673294,72.735336 
	C249.518814,72.047760 250.353958,71.622849 251.189102,71.197937 
	C251.324097,71.609886 251.459076,72.021828 251.594070,72.433777 
	C250.617020,72.621857 249.639954,72.809929 248.673294,72.735336 
z"/>
<path fill="#1D1D1D" opacity="1.000000" stroke="none" 
	d="
M778.066711,73.922775 
	C778.875549,73.890121 779.689087,74.088257 780.502686,74.286385 
	C780.356445,74.659950 780.210205,75.033516 780.063965,75.407082 
	C779.399780,74.989235 778.735596,74.571388 778.066711,73.922775 
z"/>
<path fill="#242625" opacity="1.000000" stroke="none" 
	d="
M138.324020,161.399231 
	C138.241241,162.142532 137.935654,162.860275 137.630081,163.578003 
	C137.299286,163.379822 136.968491,163.181641 136.637695,162.983459 
	C137.125534,162.446869 137.613373,161.910263 138.324020,161.399231 
z"/>
<path fill="#1D1D1D" opacity="1.000000" stroke="none" 
	d="
M775.328186,71.394241 
	C774.961365,71.770134 774.508362,71.937866 774.055298,72.105598 
	C774.022705,71.677521 773.990051,71.249443 773.957397,70.821365 
	C774.385559,70.942940 774.813782,71.064514 775.328186,71.394241 
z"/>
<path fill="#011024" opacity="1.000000" stroke="none" 
	d="
M261.948273,310.623718 
	C264.111145,311.109680 265.276733,312.151154 262.338806,313.886780 
	C261.979980,312.880493 261.964111,311.930359 261.948273,310.623718 
z"/>
<path fill="#1E1E1E" opacity="1.000000" stroke="none" 
	d="
M42.982796,306.633606 
	C43.125057,307.297760 43.041862,308.032257 42.958668,308.766754 
	C42.705597,308.717224 42.452530,308.667694 42.199463,308.618134 
	C42.385422,307.980072 42.571384,307.341980 42.982796,306.633606 
z"/>
<path fill="#1E1E1E" opacity="1.000000" stroke="none" 
	d="
M47.622169,295.801758 
	C47.965294,295.998322 48.210396,296.349396 48.296734,296.735931 
	C48.319160,296.836273 47.845314,297.047546 47.599419,297.207886 
	C47.554604,296.795074 47.509781,296.382294 47.622169,295.801758 
z"/>
<path fill="#1E1E1E" opacity="1.000000" stroke="none" 
	d="
M71.816147,250.762421 
	C72.009857,250.852951 72.113167,251.025787 72.216469,251.198624 
	C72.052895,251.080658 71.889320,250.962708 71.816147,250.762421 
z"/>
<path fill="#011024" opacity="1.000000" stroke="none" 
	d="
M258.713593,313.670959 
	C257.913269,313.902588 256.859985,313.963470 255.420181,313.933289 
	C256.175964,313.728210 257.318329,313.614197 258.713593,313.670959 
z"/>
<path fill="#1E1E1E" opacity="1.000000" stroke="none" 
	d="
M41.566681,311.588898 
	C41.470570,311.659973 41.430237,311.392700 41.430237,311.392700 
	C41.430237,311.392700 41.662788,311.517822 41.566681,311.588898 
z"/>
<path fill="#212121" opacity="1.000000" stroke="none" 
	d="
M952.295227,777.281372 
	C952.055115,777.185181 951.814941,777.088928 951.798645,777.001099 
	C952.022461,777.009521 952.295227,777.281372 952.295227,777.281372 
z"/>
<path fill="#212121" opacity="1.000000" stroke="none" 
	d="
M953.139404,776.150391 
	C953.115112,776.555908 952.917969,776.798645 952.485352,777.142944 
	C952.295227,777.281372 952.022461,777.009521 951.884766,776.872070 
	C951.907410,776.459839 952.112305,776.223755 952.559570,775.899536 
	C952.757324,775.772644 953.012024,776.024475 953.139404,776.150391 
z"/>
<path fill="#1D1D1D" opacity="1.000000" stroke="none" 
	d="
M782.467468,76.518738 
	C782.443970,76.475433 782.490967,76.562035 782.467468,76.518738 
z"/>
<path fill="#011024" opacity="1.000000" stroke="none" 
	d="
M249.856354,313.759521 
	C249.957962,313.850739 249.552109,314.020569 249.334534,313.998871 
	C249.235611,313.686493 249.448196,313.583527 249.856354,313.759521 
z"/>
<path fill="#1E1E1E" opacity="1.000000" stroke="none" 
	d="
M59.512455,273.524475 
	C59.479794,273.540436 59.545116,273.508545 59.512455,273.524475 
z"/>
<path fill="#1E1E1E" opacity="1.000000" stroke="none" 
	d="
M61.469311,269.522919 
	C61.450195,269.484741 61.488426,269.561096 61.469311,269.522919 
z"/>
<path fill="#1E1E1E" opacity="1.000000" stroke="none" 
	d="
M44.406464,304.570251 
	C44.337704,304.472565 44.597481,304.426910 44.597481,304.426910 
	C44.597481,304.426910 44.475227,304.667969 44.406464,304.570251 
z"/>
<path fill="#1E1E1E" opacity="1.000000" stroke="none" 
	d="
M45.527924,302.546204 
	C45.473255,302.578979 45.582588,302.513458 45.527924,302.546204 
z"/>
<path fill="#1E1E1E" opacity="1.000000" stroke="none" 
	d="
M60.577110,271.446686 
	C60.634254,271.534393 60.408157,271.570312 60.408157,271.570312 
	C60.408157,271.570312 60.519966,271.358978 60.577110,271.446686 
z"/>
<path fill="#02080C" opacity="1.000000" stroke="none" 
	d="
M473.402832,249.429565 
	C464.829346,265.655029 446.635590,270.198151 434.345276,259.492737 
	C425.062073,251.406662 423.201691,237.601013 430.001282,227.256378 
	C436.877014,216.795929 450.530884,213.119705 461.795074,218.696106 
	C473.364471,224.423615 478.008545,236.429947 473.402832,249.429565 
M437.848663,227.202377 
	C434.392639,230.236389 432.673492,234.246872 434.799377,238.269180 
	C436.249451,241.012772 439.251831,243.708023 442.156799,244.731613 
	C446.638824,246.310867 450.641205,244.092041 452.942291,239.834030 
	C455.130646,235.784653 454.593445,231.798691 451.547150,228.323395 
	C448.271606,224.586517 443.988220,224.129669 437.848663,227.202377 
z"/>
<path fill="#010507" opacity="1.000000" stroke="none" 
	d="
M243.821533,240.972382 
	C243.147339,243.763153 242.564484,246.163513 241.940628,248.732635 
	C230.785126,236.975571 232.356567,216.215668 244.125824,203.980286 
	C252.650406,195.118073 262.809906,194.255615 273.845886,195.069443 
	C276.877686,195.293015 277.712250,197.341736 277.739014,199.872986 
	C277.799530,205.600693 275.403564,210.292679 270.824646,213.560699 
	C268.166992,215.457474 265.103729,217.326874 261.977997,217.922012 
	C253.732803,219.491913 249.387604,224.736908 246.804657,232.097763 
	C245.815399,234.916931 244.875336,237.753387 243.821533,240.972382 
z"/>
<path fill="#4AA5D1" opacity="1.000000" stroke="none" 
	d="
M438.161804,226.973114 
	C443.988220,224.129669 448.271606,224.586517 451.547150,228.323395 
	C454.593445,231.798691 455.130646,235.784653 452.942291,239.834030 
	C450.641205,244.092041 446.638824,246.310867 442.156799,244.731613 
	C439.251831,243.708023 436.249451,241.012772 434.799377,238.269180 
	C432.673492,234.246872 434.392639,230.236389 438.161804,226.973114 
z"/>
</svg>